/* XPM */
static char * run_xpm[] = {
"20 20 2 1",
" 	c None",
".	c #555E70",
"                    ",
"       ......       ",
"     ..........     ",
"    ............    ",
"   ...        ...   ",
"   ...        ...   ",
"  ..........  ....  ",
"  ..........  ....  ",
"  ..........  ....  ",
"  ..........  ....  ",
"  ..........  ....  ",
"  ..........  ....  ",
"  ..........  ....  ",
"  ..........  ....  ",
"   .........  ...   ",
"   .........  ...   ",
"    ............    ",
"     ..........     ",
"       ......       ",
"                    "}
